<?xml version="1.0" encoding="utf-8"?>
<!-- Generator: Adobe Illustrator 27.9.0, SVG Export Plug-In . SVG Version: 6.00 Build 0)  -->
<svg version="1.1" id="_레이어_2" xmlns="http://www.w3.org/2000/svg" xmlns:xlink="http://www.w3.org/1999/xlink" x="0px"
	 y="0px" viewBox="0 0 40 23.8" style="enable-background:new 0 0 40 23.8;" xml:space="preserve">
<style type="text/css">
	.st0{fill:#F8F8FB;}
</style>
<g id="_레이어_1-2">
	<g>
		<path class="st0" d="M34.8,7.8l-6,11.6l-0.1,0.3h-6.5c0.4-0.9,0.5-1.8,0.5-2.7c0-0.4-0.1-0.8-0.2-1.2c0.5-0.3,0.9-0.7,1.2-1.2
			c0.7-1,1.1-2.3,1.1-3.6s-0.4-2.6-1.1-3.6c-0.8-1.1-2-1.8-3.2-1.9c-0.1-1.2-0.5-2.3-1.2-3.2c-1-1.4-2.4-2.1-3.9-2.1
			c-1.1,0-2.1,0.4-3,1.1C11.5,0.4,10.5,0,9.4,0C7.9,0,6.5,0.8,5.5,2.2c-0.7,0.9-1.1,2-1.2,3.2C3.1,5.5,1.9,6.2,1.1,7.3
			C0.4,8.3,0,9.6,0,10.9s0.4,2.6,1.1,3.6c0.3,0.5,0.8,0.9,1.2,1.2c-0.1,0.4-0.2,0.8-0.2,1.2c-0.1,1.6,0.5,3.2,1.6,4.6
			c1.2,1.4,2.7,2.2,4.5,2.2c0.1,0,0.3,0,0.5,0c0.6,0,1.1-0.1,1.5-0.3c0.2,0,0.4-0.1,0.6-0.1c0.1,0,0.1,0,0.2-0.1
			c0.3-0.1,0.6-0.2,0.8-0.2c0.2,0,0.4-0.1,0.5-0.1h0.1c0.1,0,0.3,0,0.5,0.1c0.3,0,0.5,0.1,0.8,0.2l0,0c0.2,0,0.3,0.1,0.5,0.1
			c0.5,0.1,1.1,0.3,1.8,0.3c0.2,0,0.3,0,0.5,0h13.2c0,0,0,0,0.1,0c0,0,0,0,0,0l0,0c0.2,0,0.4,0,0.7-0.1c0.5-0.1,1-0.5,1.3-1
			l6.7-12.9L34.8,7.8L34.8,7.8z M20,7.9c1.2,0,2.1,1.3,2.1,3s-1,3-2.1,3s-2.1-1.3-2.1-3S18.8,7.9,20,7.9z M15.3,2.6
			c1.4,0,2.5,1.6,2.5,3.5s-1.1,3.5-2.5,3.5s-2.5-1.6-2.5-3.5S13.9,2.6,15.3,2.6z M9.4,2.6c1.4,0,2.5,1.6,2.5,3.5s-1.1,3.5-2.5,3.5
			S6.9,8.1,6.9,6.2S8,2.6,9.4,2.6z M2.6,10.9c0-1.6,1-3,2.1-3s2.1,1.3,2.1,3s-0.9,3-2.1,3S2.6,12.6,2.6,10.9z M16.3,21.2
			c-1.3-0.1-2.6-0.8-3.9-0.8c-0.7,0-1.4,0.2-2.1,0.4c-0.2,0-0.4,0.1-0.6,0.1c-0.1,0-0.3,0.1-0.4,0.1c-0.3,0.1-0.5,0.1-0.8,0.1
			c-1.1,0.1-2-0.4-2.7-1.2c-0.6-0.8-1.1-1.8-1-2.8c0-0.6,0.3-1.2,0.8-1.7C6,15,6.6,14.7,7.1,14.1c0.3-0.4,0.5-0.8,0.8-1.2
			c0.9-1.4,2.7-2.9,4.4-2.9c0,0,0,0,0,0c0,0,0,0,0,0c1.8,0,3.5,1.5,4.4,2.9c0.3,0.4,0.5,0.8,0.8,1.2c0.5,0.6,1.1,0.8,1.6,1.3
			c0.5,0.5,0.8,1.1,0.8,1.7c0.1,0.9-0.3,1.8-0.8,2.5C19.1,19.8,19,19.9,19,20c0,0,0,0-0.1,0.1c-0.1,0.1-0.2,0.2-0.3,0.4
			C17.9,21,17.2,21.3,16.3,21.2L16.3,21.2z"/>
		<path class="st0" d="M39.9,7.6l-0.8,1.4l-3.6-2.1l0.8-1.4c0.2-0.4,0.7-0.5,1.1-0.3l2.1,1.2c0.2,0.1,0.3,0.3,0.4,0.5
			C40,7.1,40,7.4,39.9,7.6L39.9,7.6z"/>
	</g>
</g>
</svg>
